<svg height="512" viewBox="0 0 60 60" width="512" xmlns="http://www.w3.org/2000/svg"><g id="Page-1" fill="none" fill-rule="evenodd"><g id="005---Filter-Searches" fill-rule="nonzero"><g id="Icons_copy" transform="translate(1 1)"><rect id="Rectangle-path" fill="#3f51b5" height="20" rx="4" width="58"/><path id="Shape" d="m54 0h-3c2.209139 0 4 1.790861 4 4v12c0 2.209139-1.790861 4-4 4h3c2.209139 0 4-1.790861 4-4v-12c0-2.209139-1.790861-4-4-4z" fill="#283593"/><path id="Shape" d="m14 9c.0019448.62681711-.1168873 1.2481393-.35 1.83-.5082147 1.2904224-1.5295776 2.3117853-2.82 2.82-.5818607.2331127-1.20318289.3519448-1.83.35-2.76142375 0-5-2.2385763-5-5 0-2.76142375 2.23857625-5 5-5 2.7614237 0 5 2.23857625 5 5z" fill="#02a9f4"/><path id="Shape" d="m15.41 15.41c-.7800749.7754472-2.0399251.7754472-2.82 0l-1.76-1.76c1.2904224-.5082147 2.3117853-1.5295776 2.82-2.82l1.76 1.76c.7754472.7800749.7754472 2.0399251 0 2.82z" fill="#7f8e94"/><path id="Shape" d="m46 36c0 .47-.34.92-1 1.34-2.32 1.55-8.61 2.66-16 2.66s-13.68-1.11-16-2.66c-.64-.42-1-.87-1-1.34 0-2.21 7.61-4 17-4s17 1.79 17 4z" fill="#ffdc00"/><path id="Shape" d="m29 32h-1.5c8.69.18 15.5 1.89 15.5 4 0 .47-.34.92-1 1.34-2.18 1.44-7.79 2.5-14.52 2.64l1.52.02c7.39 0 13.68-1.11 16-2.66.64-.42 1-.87 1-1.34 0-2.21-7.61-4-17-4z" fill="#fec108"/><path id="Shape" d="m45 37.34-10.88 8.76c-.7087172.569917-1.1206479 1.4305578-1.12 2.34v4c-.0027417.3419422-.1800176.6587758-.47.84l-6 4.56c-.3070562.1919267-.693878.2028666-1.0112906.0286008-.3174127-.1742658-.5158206-.5065083-.5187094-.8686008v-8.56c.0006479-.9094422-.4112828-1.770083-1.12-2.34l-10.88-8.76c2.32 1.55 8.61 2.66 16 2.66s13.68-1.11 16-2.66z" fill="#ffdc00"/><path id="Shape" d="m39.86 39.08-8.74 7c-.7142134.5742964-1.1267429 1.4435549-1.12 2.36v4c-.0027417.3419422-.1800176.6587758-.47.84l-4.53 3.45v.27c-.0007291.3638839.1962627.6994429.5143551.8761609s.707072.1666987 1.0156449-.0261609l6-4.56c.2899824-.1812242.4672583-.4980578.47-.84v-4c-.0006479-.9094422.4112828-1.770083 1.12-2.34l10.88-8.77c-1.5989388.8748843-3.3384159 1.4637346-5.14 1.74z" fill="#fec108"/></g><g id="Icons" fill="#000"><path id="Shape" d="m55 0h-50c-2.76142375 0-5 2.23857625-5 5v12c0 2.7614237 2.23857625 5 5 5h50c2.7614237 0 5-2.2385763 5-5v-12c0-2.76142375-2.2385763-5-5-5zm3 17c0 1.6568542-1.3431458 3-3 3h-50c-1.65685425 0-3-1.3431458-3-3v-12c0-1.65685425 1.34314575-3 3-3h50c1.6568542 0 3 1.34314575 3 3z"/><path id="Shape" d="m15.79 11.55c.7039041-2.6232354-.442152-5.39217001-2.7940631-6.75060997-2.3519111-1.35843995-5.32304756-.96755394-7.24357419.95297268-1.92052662 1.92052663-2.31141263 4.89166309-.95297268 7.24357419 1.35843996 2.3519111 4.12737457 3.4979672 6.75060997 2.7940631l1.33 1.32c.8566575.8556135 2.1436672 1.1124102 3.2630933.6510842s1.8518161-1.5503363 1.8569067-2.7610842c-.0007002-.7953814-.3172301-1.5579306-.88-2.12zm-9.79-1.55c0-2.209139 1.790861-4 4-4s4 1.790861 4 4-1.790861 4-4 4c-1.06086596 0-2.07828161-.4214274-2.82842712-1.1715729-.75014552-.7501455-1.17157288-1.7675611-1.17157288-2.8284271zm9.7 5.71c-.3888435.3811429-1.0111565.3811429-1.4 0l-.82-.82c.5386472-.3886604 1.0113396-.8613528 1.4-1.4l.83.82c.3877236.3900375.3877236 1.0199625 0 1.41z"/><path id="Shape" d="m25 16h-3c-.5522847 0-1 .4477153-1 1s.4477153 1 1 1h3c.5522847 0 1-.4477153 1-1s-.4477153-1-1-1z"/><path id="Shape" d="m32 16h-3c-.5522847 0-1 .4477153-1 1s.4477153 1 1 1h3c.5522847 0 1-.4477153 1-1s-.4477153-1-1-1z"/><path id="Shape" d="m39 16h-3c-.5522847 0-1 .4477153-1 1s.4477153 1 1 1h3c.5522847 0 1-.4477153 1-1s-.4477153-1-1-1z"/><path id="Shape" d="m46 16h-3c-.5522847 0-1 .4477153-1 1s.4477153 1 1 1h3c.5522847 0 1-.4477153 1-1s-.4477153-1-1-1z"/><path id="Shape" d="m53 16h-3c-.5522847 0-1 .4477153-1 1s.4477153 1 1 1h3c.5522847 0 1-.4477153 1-1s-.4477153-1-1-1z"/><circle id="Oval" cx="30" cy="25" r="1"/><circle id="Oval" cx="30" cy="29" r="1"/><circle id="Oval" cx="30" cy="37" r="1"/><path id="Shape" d="m12 37c.0553993.9079279.5830256 1.7202446 1.39 2.14l10.86 8.74c.4737265.3792846.7496208.9531446.75 1.56v8.56c-.002848.7173695.3787316 1.3813181 1 1.74.3056666.1706268.6499349.2601366 1 .26.3710525-.0006624.7346054-.1045347 1.05-.3l.08-.05 5.93-4.51c.5829573-.364345.9379373-1.0025538.94-1.69v-4c.0003792-.6068554.2762735-1.1807154.75-1.56l10.88-8.75c.7938241-.4307756 1.3110784-1.2387494 1.37-2.14 0-4-11.31-5-18-5s-18 1.05-18 5zm22.49 9.32c-.9437083.7605482-1.4916758 1.9079702-1.49 3.12l-.08 4.05-5.92 4.51v-8.56c.0016758-1.2120298-.5462917-2.3594518-1.49-3.12l-6.51-5.26c3.6292274.6564523 7.3120127.9711631 11 .94 3.6879873.0311631 7.3707726-.2835477 11-.94zm-4.49-12.32c10 0 15.79 2 16 3 0 0-.13.24-.53.51-1.82 1.2-7.47 2.49-15.47 2.49-6.84 0-13.18-1-15.37-2.43l-.09-.07c-.47-.31-.54-.5-.54-.5.19-1 6-3 16-3z"/></g></g></g></svg>