<?xml version="1.0" encoding="iso-8859-1"?>
<!-- Generator: Adobe Illustrator 19.0.0, SVG Export Plug-In . SVG Version: 6.00 Build 0)  -->
<svg version="1.1" id="Capa_1" xmlns="http://www.w3.org/2000/svg" xmlns:xlink="http://www.w3.org/1999/xlink" x="0px" y="0px"
	 viewBox="0 0 512 512" style="enable-background:new 0 0 512 512;" xml:space="preserve">
<path style="fill:#566368;" d="M324.383,476.714c0,19.487-15.799,35.286-35.286,35.286H46.994
	c-19.487,0-35.297-15.799-35.297-35.286V70.028c0-19.487,15.809-35.286,35.297-35.286h267.369l1.578,69.622l7.565,333.835
	L324.383,476.714z"/>
<polygon style="fill:#E5E9EA;" points="323.507,438.199 11.697,438.199 11.697,104.364 315.942,104.364 "/>
<g>
	<path style="fill:#D1D1D1;" d="M256.635,224.667H78.569c-10.986,0-19.892-8.906-19.892-19.892v-46.038
		c0-10.986,8.906-19.892,19.892-19.892h178.067c10.986,0,19.892,8.906,19.892,19.892v46.038
		C276.527,215.76,267.621,224.667,256.635,224.667z"/>
	<path style="fill:#D1D1D1;" d="M256.635,337.994H78.569c-10.986,0-19.892-8.906-19.892-19.892v-46.038
		c0-10.986,8.906-19.892,19.892-19.892h178.067c10.986,0,19.892,8.906,19.892,19.892v46.038
		C276.527,329.088,267.621,337.994,256.635,337.994z"/>
</g>
<path style="fill:#FCB65F;" d="M477.833,151.972H211.451c-12.409,0-22.468-10.059-22.468-22.468V22.468
	C188.982,10.059,199.042,0,211.451,0h266.383c12.409,0,22.468,10.059,22.468,22.468v107.036
	C500.301,141.913,490.241,151.972,477.833,151.972z"/>
<path style="fill:#FA3F68;" d="M477.833,302.136H211.451c-12.409,0-22.468-10.059-22.468-22.468v-73.955
	c0-12.409,10.059-22.468,22.468-22.468h266.383c12.409,0,22.468,10.059,22.468,22.468v73.955
	C500.301,292.077,490.241,302.136,477.833,302.136z"/>
<path style="fill:#D1D1D1;" d="M276.527,385.389v46.038c0,2.382-0.418,4.66-1.181,6.771H59.867
	c-0.773-2.111-1.191-4.389-1.191-6.771v-46.038c0-10.982,8.903-19.895,19.895-19.895h178.061
	C267.626,365.495,276.527,374.408,276.527,385.389z"/>
<g>
	<path style="fill:#53BCE9;" d="M329.494,355.871v73.958c0,12.413-10.062,22.465-22.465,22.465h-95.577
		c-12.413,0-22.465-10.052-22.465-22.465v-73.958c0-12.403,10.052-22.465,22.465-22.465h95.577
		C319.431,333.406,329.494,343.468,329.494,355.871z"/>
	<path style="fill:#53BCE9;" d="M500.303,355.871v73.958c0,12.413-10.062,22.465-22.465,22.465H382.26
		c-12.413,0-22.476-10.052-22.476-22.465v-73.958c0-12.403,10.062-22.465,22.476-22.465h95.577
		C490.24,333.406,500.303,343.468,500.303,355.871z"/>
</g>
<path style="fill:#566368;" d="M500.303,372.37v57.459c0,12.413-10.062,22.465-22.465,22.465H382.26
	c-12.413,0-22.476-10.052-22.476-22.465l56.456-51.19l28.212,28.212L500.303,372.37z"/>
<g>
	<path style="fill:#435054;" d="M462.971,47.776H226.313c-4.329,0-7.837-3.509-7.837-7.837s3.508-7.837,7.837-7.837h236.657
		c4.329,0,7.837,3.509,7.837,7.837S467.299,47.776,462.971,47.776z"/>
	<path style="fill:#435054;" d="M462.971,83.823H226.313c-4.329,0-7.837-3.509-7.837-7.837c0-4.328,3.508-7.837,7.837-7.837h236.657
		c4.329,0,7.837,3.509,7.837,7.837C470.807,80.314,467.299,83.823,462.971,83.823z"/>
	<path style="fill:#435054;" d="M462.971,119.87H226.313c-4.329,0-7.837-3.509-7.837-7.837s3.508-7.837,7.837-7.837h236.657
		c4.329,0,7.837,3.509,7.837,7.837S467.299,119.87,462.971,119.87z"/>
	<path style="fill:#435054;" d="M462.971,232.504H226.313c-4.329,0-7.837-3.509-7.837-7.837s3.508-7.837,7.837-7.837h236.657
		c4.329,0,7.837,3.509,7.837,7.837S467.299,232.504,462.971,232.504z"/>
	<path style="fill:#435054;" d="M462.971,268.551H226.313c-4.329,0-7.837-3.509-7.837-7.837s3.508-7.837,7.837-7.837h236.657
		c4.329,0,7.837,3.509,7.837,7.837S467.299,268.551,462.971,268.551z"/>
	<path style="fill:#435054;" d="M295.557,381.184h-69.244c-4.329,0-7.837-3.509-7.837-7.837s3.508-7.837,7.837-7.837h69.244
		c4.329,0,7.837,3.509,7.837,7.837S299.886,381.184,295.557,381.184z"/>
	<path style="fill:#435054;" d="M295.557,417.231h-69.244c-4.329,0-7.837-3.509-7.837-7.837c0-4.328,3.508-7.837,7.837-7.837h69.244
		c4.329,0,7.837,3.509,7.837,7.837C303.394,413.722,299.886,417.231,295.557,417.231z"/>
</g>
<g>
</g>
<g>
</g>
<g>
</g>
<g>
</g>
<g>
</g>
<g>
</g>
<g>
</g>
<g>
</g>
<g>
</g>
<g>
</g>
<g>
</g>
<g>
</g>
<g>
</g>
<g>
</g>
<g>
</g>
</svg>
