<?xml version="1.0" encoding="iso-8859-1"?>
<!-- Generator: Adobe Illustrator 19.0.0, SVG Export Plug-In . SVG Version: 6.00 Build 0)  -->
<svg version="1.1" id="Capa_1" xmlns="http://www.w3.org/2000/svg" xmlns:xlink="http://www.w3.org/1999/xlink" x="0px" y="0px"
	 viewBox="0 0 490 490" style="enable-background:new 0 0 490 490;" xml:space="preserve">
<path d="M467.031,30.625H22.969C10.336,30.625,0,40.961,0,53.594v13.868v9.101v382.813h490V76.563v-9.101V53.594
	C490,40.961,479.664,30.625,467.031,30.625z M141.641,42.109h283.281c6.316,0,11.484,5.168,11.484,11.484
	c0,6.316-5.168,11.484-11.484,11.484H141.641c-6.316,0-11.484-5.168-11.484-11.484C130.156,47.277,135.324,42.109,141.641,42.109z
	 M77.679,47.054c3.612,0,6.54,2.928,6.54,6.54c0,3.612-2.928,6.539-6.54,6.539c-3.612,0-6.539-2.928-6.539-6.539
	C71.139,49.982,74.067,47.054,77.679,47.054z M38.441,60.133c-3.612,0-6.539-2.928-6.539-6.539c0-3.612,2.928-6.54,6.539-6.54
	c3.612,0,6.54,2.928,6.54,6.54C44.98,57.206,42.052,60.133,38.441,60.133z M51.52,53.594c0-3.612,2.928-6.54,6.539-6.54
	c3.612,0,6.54,2.928,6.54,6.54c0,3.612-2.928,6.539-6.54,6.539C54.448,60.133,51.52,57.206,51.52,53.594z M130.196,407.782H53.633
	v-68.906h76.563V407.782z M130.196,308.25H53.633v-68.906h76.563V308.25z M436.446,400.125H176.133v-7.656h260.313V400.125z
	 M436.446,377.157H176.133V369.5h260.313V377.157z M436.446,354.188H176.133v-7.656h260.313V354.188z M436.446,300.594H176.133
	v-7.656h260.313V300.594z M436.446,277.625H176.133v-7.656h260.313V277.625z M436.446,254.657H176.133v-7.656h260.313V254.657z
	 M436.446,201.063H53.633v-84.219h382.813V201.063z"/>
<g>
</g>
<g>
</g>
<g>
</g>
<g>
</g>
<g>
</g>
<g>
</g>
<g>
</g>
<g>
</g>
<g>
</g>
<g>
</g>
<g>
</g>
<g>
</g>
<g>
</g>
<g>
</g>
<g>
</g>
</svg>
